<?xml version="1.0" encoding="UTF-8" standalone="no"?>
<svg
   viewBox="0 0 100 100"
   version="1.1"
   id="svg1"
   sodipodi:docname="favicon.svg"
   inkscape:version="1.4 (86a8ad7, 2024-10-11)"
   xmlns:inkscape="http://www.inkscape.org/namespaces/inkscape"
   xmlns:sodipodi="http://sodipodi.sourceforge.net/DTD/sodipodi-0.dtd"
   xmlns="http://www.w3.org/2000/svg"
   xmlns:svg="http://www.w3.org/2000/svg">
  <defs
     id="defs1">
    <inkscape:path-effect
       effect="spiro"
       id="path-effect9"
       is_visible="true"
       lpeversion="1" />
    <inkscape:path-effect
       effect="spiro"
       id="path-effect7"
       is_visible="true"
       lpeversion="1" />
    <inkscape:path-effect
       effect="spiro"
       id="path-effect5"
       is_visible="true"
       lpeversion="1" />
    <inkscape:path-effect
       effect="skeletal"
       id="path-effect4"
       is_visible="true"
       lpeversion="1"
       pattern="M 0,18.867925 C 0,8.4528302 8.4528302,0 18.867925,0 c 10.415094,0 18.867924,8.4528302 18.867924,18.867925 0,10.415094 -8.45283,18.867924 -18.867924,18.867924 C 8.4528302,37.735849 0,29.283019 0,18.867925 Z"
       copytype="single_stretched"
       prop_scale="1"
       scale_y_rel="false"
       spacing="0"
       normal_offset="0"
       tang_offset="0"
       prop_units="false"
       vertical_pattern="false"
       hide_knot="false"
       fuse_tolerance="0" />
    <inkscape:path-effect
       effect="skeletal"
       id="path-effect3"
       is_visible="true"
       lpeversion="1"
       pattern="M 0,18.867925 C 0,8.4528302 8.4528302,0 18.867925,0 c 10.415094,0 18.867924,8.4528302 18.867924,18.867925 0,10.415094 -8.45283,18.867924 -18.867924,18.867924 C 8.4528302,37.735849 0,29.283019 0,18.867925 Z"
       copytype="single_stretched"
       prop_scale="1"
       scale_y_rel="false"
       spacing="0"
       normal_offset="0"
       tang_offset="0"
       prop_units="false"
       vertical_pattern="false"
       hide_knot="false"
       fuse_tolerance="0" />
  </defs>
  <sodipodi:namedview
     id="namedview1"
     pagecolor="#ffffff"
     bordercolor="#000000"
     borderopacity="0.25"
     inkscape:showpageshadow="2"
     inkscape:pageopacity="0.0"
     inkscape:pagecheckerboard="0"
     inkscape:deskcolor="#d1d1d1"
     inkscape:zoom="2.8284271"
     inkscape:cx="12.197592"
     inkscape:cy="38.360543"
     inkscape:window-width="1920"
     inkscape:window-height="1017"
     inkscape:window-x="2552"
     inkscape:window-y="-8"
     inkscape:window-maximized="1"
     inkscape:current-layer="svg1" />
  <path
     id="path2"
     style="fill:#004e5f;fill-opacity:1;stroke:none;stroke-width:1.64238;stroke-linecap:square;stroke-miterlimit:100.6"
     d="M 59.062773,3.6394938 A 47.240253,47.240253 0 0 0 3.6279523,40.925686 47.240253,47.240253 0 0 0 2.8171773,48.047094 C 12.856706,59.411726 27.045407,67.064497 42.08194,69.092658 55.877862,70.953483 70.263582,68.125274 82.329453,61.1823 72.217222,74.063906 55.432487,81.392889 39.110858,80.052212 30.592303,79.352488 22.26818,76.411095 15.200368,71.604699 11.012439,68.75674 7.275612,65.254437 4.1355511,61.281164 A 47.240253,47.240253 0 0 0 40.914145,96.360506 47.240253,47.240253 0 0 0 96.348965,59.074314 47.240253,47.240253 0 0 0 97.182823,51.977326 C 87.142029,40.598803 72.942616,32.937 57.894978,30.907342 44.099056,29.046517 29.713336,31.874726 17.647465,38.817701 27.759696,25.936094 44.544431,18.607111 60.86606,19.947788 c 8.518555,0.699724 16.842678,3.641117 23.91049,8.447513 4.196338,2.853678 7.940118,6.364046 11.084066,10.347205 A 47.240253,47.240253 0 0 0 59.062773,3.6394938 Z" />
  <path
     style="opacity:0.54901961;fill:#ff8080;fill-opacity:1;stroke:#ff0000;stroke-width:3;stroke-linecap:round;stroke-miterlimit:100.6;stroke-dasharray:none;stroke-opacity:1"
     d="M 18.592312,50 H 81.407688"
     id="path12" />
</svg>
